<?xml version="1.0" encoding="UTF-8" standalone="no"?>
<!-- Created with Inkscape (http://www.inkscape.org/) -->

<svg
   xmlns:dc="http://purl.org/dc/elements/1.1/"
   xmlns:cc="http://creativecommons.org/ns#"
   xmlns:rdf="http://www.w3.org/1999/02/22-rdf-syntax-ns#"
   xmlns:svg="http://www.w3.org/2000/svg"
   xmlns="http://www.w3.org/2000/svg"
   xmlns:sodipodi="http://sodipodi.sourceforge.net/DTD/sodipodi-0.dtd"
   xmlns:inkscape="http://www.inkscape.org/namespaces/inkscape"
   width="210mm"
   height="297mm"
   viewBox="0 0 210 297"
   version="1.1"
   id="svg8"
   inkscape:export-filename="/home/cbenz/Dev/open-chords-charts/elm-europe-2017-talk/assets/notes-circle.png"
   inkscape:export-xdpi="96"
   inkscape:export-ydpi="96"
   inkscape:version="0.92.1 r15371"
   sodipodi:docname="notes-circle.svg">
  <defs
     id="defs2">
    <marker
       inkscape:isstock="true"
       style="overflow:visible;"
       id="marker5307"
       refX="0.0"
       refY="0.0"
       orient="auto"
       inkscape:stockid="Arrow2Lend">
      <path
         transform="scale(1.1) rotate(180) translate(1,0)"
         d="M 8.7185878,4.0337352 L -2.2072895,0.016013256 L 8.7185884,-4.0017078 C 6.9730900,-1.6296469 6.9831476,1.6157441 8.7185878,4.0337352 z "
         style="fill-rule:evenodd;stroke-width:0.625;stroke-linejoin:round;stroke:#000000;stroke-opacity:0.93381473;fill:#000000;fill-opacity:0.93381473"
         id="path5305" />
    </marker>
    <marker
       inkscape:stockid="Arrow1Lstart"
       orient="auto"
       refY="0.0"
       refX="0.0"
       id="marker5067"
       style="overflow:visible"
       inkscape:isstock="true">
      <path
         id="path5065"
         d="M 0.0,0.0 L 5.0,-5.0 L -12.5,0.0 L 5.0,5.0 L 0.0,0.0 z "
         style="fill-rule:evenodd;stroke:#000000;stroke-width:1pt;stroke-opacity:0.93381473;fill:#000000;fill-opacity:0.93381473"
         transform="scale(0.8) translate(12.5,0)" />
    </marker>
    <marker
       inkscape:stockid="Arrow1Lstart"
       orient="auto"
       refY="0.0"
       refX="0.0"
       id="marker5009"
       style="overflow:visible"
       inkscape:isstock="true">
      <path
         id="path5007"
         d="M 0.0,0.0 L 5.0,-5.0 L -12.5,0.0 L 5.0,5.0 L 0.0,0.0 z "
         style="fill-rule:evenodd;stroke:#000000;stroke-width:1pt;stroke-opacity:0.93381473;fill:#000000;fill-opacity:0.93381473"
         transform="scale(0.8) translate(12.5,0)" />
    </marker>
    <marker
       inkscape:stockid="Arrow1Lstart"
       orient="auto"
       refY="0.0"
       refX="0.0"
       id="Arrow1Lstart"
       style="overflow:visible"
       inkscape:isstock="true">
      <path
         id="path4615"
         d="M 0.0,0.0 L 5.0,-5.0 L -12.5,0.0 L 5.0,5.0 L 0.0,0.0 z "
         style="fill-rule:evenodd;stroke:#000000;stroke-width:1pt;stroke-opacity:0.93381473;fill:#000000;fill-opacity:0.93381473"
         transform="scale(0.8) translate(12.5,0)" />
    </marker>
    <marker
       inkscape:stockid="Arrow2Lend"
       orient="auto"
       refY="0.0"
       refX="0.0"
       id="Arrow2Lend"
       style="overflow:visible;"
       inkscape:isstock="true"
       inkscape:collect="always">
      <path
         id="path4636"
         style="fill-rule:evenodd;stroke-width:0.625;stroke-linejoin:round;stroke:#000000;stroke-opacity:0.93381473;fill:#000000;fill-opacity:0.93381473"
         d="M 8.7185878,4.0337352 L -2.2072895,0.016013256 L 8.7185884,-4.0017078 C 6.9730900,-1.6296469 6.9831476,1.6157441 8.7185878,4.0337352 z "
         transform="scale(1.1) rotate(180) translate(1,0)" />
    </marker>
  </defs>
  <sodipodi:namedview
     id="base"
     pagecolor="#ffffff"
     bordercolor="#666666"
     borderopacity="1.0"
     inkscape:pageopacity="0.0"
     inkscape:pageshadow="2"
     inkscape:zoom="3.959798"
     inkscape:cx="389.78831"
     inkscape:cy="558.8153"
     inkscape:document-units="mm"
     inkscape:current-layer="g4603"
     showgrid="false"
     inkscape:window-width="3200"
     inkscape:window-height="1731"
     inkscape:window-x="0"
     inkscape:window-y="34"
     inkscape:window-maximized="0" />
  <metadata
     id="metadata5">
    <rdf:RDF>
      <cc:Work
         rdf:about="">
        <dc:format>image/svg+xml</dc:format>
        <dc:type
           rdf:resource="http://purl.org/dc/dcmitype/StillImage" />
        <dc:title></dc:title>
      </cc:Work>
    </rdf:RDF>
  </metadata>
  <g
     inkscape:label="Layer 1"
     inkscape:groupmode="layer"
     id="layer1">
    <g
       style="overflow:visible"
       id="g4603"
       transform="matrix(0.26458333,0,0,0.26458333,78.379982,105.99894)">
      <g
         id="g4555"
         transform="rotate(90,171.1335,171.0013)">
        <g
           id="g4513">
          <path
             id="path4485"
             d="m 169.044,7.988 c 1.431,-0.043 2.888,-0.087 5.003,0.645 -0.546,1.236 -0.643,1.557 -0.817,2.782 -0.358,-0.44 -0.689,-0.881 -1.362,-1.232 -0.673,-0.351 -1.714,-0.558 -2.773,-0.525 -2.066,0.062 -3.84,1.017 -4.835,2.293 -1.071,1.384 -1.536,3.572 -1.475,5.612 0.071,2.383 0.883,4.666 2.249,6.03 1.34,1.338 3.212,1.891 5.094,1.835 2.622,-0.079 3.759,-1.068 4.379,-1.591 -0.311,1.15 -0.404,1.524 -0.553,2.774 -0.736,0.181 -2.105,0.514 -4.251,0.579 -1.033,0.031 -4.715,0.142 -7.335,-2.351 -1.884,-1.826 -2.651,-4.374 -2.724,-6.811 -0.191,-6.303 3.016,-9.847 9.4,-10.04 z"
             inkscape:connector-curvature="0" />
          <path
             id="path4487"
             d="m 221.38,15.956 c 1.368,0.419 2.762,0.848 4.53,2.222 -0.915,0.994 -1.109,1.267 -1.671,2.37 -0.196,-0.532 -0.369,-1.056 -0.894,-1.605 -0.523,-0.549 -1.441,-1.081 -2.455,-1.391 -1.977,-0.607 -3.963,-0.274 -5.316,0.613 -1.461,0.965 -2.605,2.887 -3.205,4.837 -0.699,2.28 -0.666,4.702 0.188,6.434 0.838,1.698 2.432,2.825 4.23,3.377 2.508,0.77 3.902,0.201 4.658,-0.094 -0.663,0.988 -0.874,1.312 -1.416,2.448 -0.757,-0.065 -2.16,-0.191 -4.212,-0.822 -0.987,-0.303 -4.51,-1.384 -6.187,-4.588 -1.196,-2.335 -1.101,-4.995 -0.385,-7.325 1.853,-6.03 6.029,-8.351 12.135,-6.476 z"
             inkscape:connector-curvature="0" />
          <path
             id="path4489"
             d="m 238.808,22.667 -1.537,3.51 1.677,-0.097 -0.71,1.582 -1.672,0.1 -2.088,4.837 1.639,-0.085 -0.714,1.623 -1.66,0.09 -1.482,3.433 -0.674,-0.296 1.344,-3.084 -4.253,0.221 -1.645,3.802 -0.645,-0.27 1.521,-3.488 -1.678,0.083 0.709,-1.611 1.705,-0.099 2.096,-4.834 -1.69,0.091 0.704,-1.6 1.682,-0.094 1.515,-3.475 0.662,0.291 -1.364,3.131 4.215,-0.182 1.693,-3.894 z m -3.042,5.166 -4.253,0.222 -2.095,4.819 4.226,-0.219 z"
             inkscape:connector-curvature="0" />
          <path
             id="path4491"
             d="m 250.159,33.646 c 2.305,-1.712 2.798,-2.316 3.428,-3.056 0.321,0.242 0.618,0.47 0.965,0.665 0.345,0.196 0.718,0.345 1.09,0.494 -1.815,0.953 -2.173,1.208 -4.144,2.652 l -8.926,6.708 -1.444,1.103 c -1.394,1.07 -1.646,1.354 -2.033,1.986 -0.333,-0.218 -0.677,-0.472 -1.022,-0.668 -0.346,-0.195 -0.718,-0.344 -1.101,-0.529 1.541,-0.682 3.275,-1.925 4.249,-2.624 z"
             inkscape:connector-curvature="0" />
          <path
             id="path4493"
             d="m 255.515,41.426 c 3.596,-5.019 3.794,-5.563 4.317,-7.147 0.254,0.282 1.385,1.296 2.179,1.871 1.354,0.978 2.524,1.53 4.114,2.679 2.125,1.537 5.037,4.067 4.033,8.214 -0.432,1.683 -1.482,3.408 -2.212,4.417 -1.568,2.169 -3.748,3.961 -6.396,4.368 -3.167,0.49 -5.997,-1.294 -7.844,-2.63 -1.31,-0.947 -2.257,-1.763 -3.094,-2.368 -0.902,-0.652 -1.399,-0.914 -1.952,-1.28 0.363,-0.097 0.959,-0.287 2.955,-2.866 0.975,-1.258 1.487,-1.966 2.021,-2.66 z m -1.893,7.232 c -0.554,0.81 -1.028,1.513 1.14,3.081 0.667,0.481 2.511,1.684 4.241,1.823 3.153,0.252 5.368,-2.495 6.378,-3.891 1.148,-1.589 2.408,-3.784 1.703,-6.29 -0.58,-1.957 -2.145,-3.186 -2.811,-3.667 -0.987,-0.714 -2.17,-1.34 -2.797,-1.695 -0.758,0.957 -2.343,3.015 -3.492,4.604 z"
             inkscape:connector-curvature="0" />
          <path
             id="path4495"
             d="m 277.145,51.334 -6.856,7.438 c 2.027,-0.362 3.463,-0.156 4.31,0.618 0.529,0.484 0.789,1.055 0.783,1.714 -0.008,0.659 -0.281,1.284 -0.822,1.876 -0.89,0.973 -2.092,1.461 -3.607,1.465 -1.518,0.003 -3.026,-0.477 -4.527,-1.441 l -0.508,-0.325 10.737,-11.76 z m -10.186,11.107 0.393,0.202 c 1.101,0.586 2.156,0.849 3.168,0.79 1.013,-0.06 1.834,-0.435 2.468,-1.127 0.383,-0.418 0.603,-0.865 0.657,-1.34 0.055,-0.475 -0.07,-0.852 -0.377,-1.131 -0.629,-0.576 -1.885,-0.628 -3.765,-0.156 z"
             inkscape:connector-curvature="0" />
          <path
             id="path4497"
             d="m 303.157,90.509 c 5.411,-2.976 5.824,-3.381 6.979,-4.584 0.107,0.364 0.69,1.767 1.158,2.628 0.799,1.466 1.616,2.469 2.555,4.191 1.254,2.304 2.789,5.844 0.094,9.151 -1.116,1.332 -2.808,2.435 -3.901,3.029 -2.351,1.28 -5.091,1.957 -7.655,1.181 -3.068,-0.924 -4.851,-3.755 -5.94,-5.757 -0.773,-1.42 -1.275,-2.565 -1.769,-3.473 -0.533,-0.978 -0.869,-1.428 -1.21,-1.997 0.37,0.07 0.99,0.155 3.903,-1.311 1.422,-0.714 2.19,-1.132 2.971,-1.526 z m -4.827,5.706 c -0.849,0.493 -1.58,0.921 -0.302,3.272 0.394,0.722 1.538,2.603 3.039,3.475 2.735,1.589 5.92,0.066 7.433,-0.758 1.723,-0.938 3.807,-2.374 4.25,-4.939 0.321,-2.015 -0.56,-3.799 -0.952,-4.521 -0.583,-1.07 -1.379,-2.146 -1.791,-2.735 -1.096,0.536 -3.415,1.708 -5.138,2.646 z"
             inkscape:connector-curvature="0" />
          <path
             id="path4499"
             d="m 322.674,140.568 c 6.102,-0.952 6.628,-1.192 8.124,-1.929 -0.023,0.378 0.047,1.896 0.192,2.865 0.251,1.651 0.677,2.873 0.972,4.812 0.393,2.594 0.628,6.445 -3.034,8.636 -1.502,0.87 -3.47,1.329 -4.701,1.516 -2.647,0.401 -5.453,0.104 -7.6,-1.501 -2.567,-1.916 -3.277,-5.186 -3.619,-7.439 -0.242,-1.598 -0.324,-2.846 -0.479,-3.867 -0.167,-1.101 -0.328,-1.639 -0.454,-2.29 0.324,0.192 0.877,0.483 4.117,0.1 1.579,-0.186 2.443,-0.317 3.312,-0.421 z m -6.486,3.717 c -0.966,0.173 -1.8,0.326 -1.399,2.973 0.124,0.812 0.559,2.97 1.671,4.303 2.029,2.426 5.542,2.082 7.246,1.823 1.938,-0.293 4.388,-0.933 5.68,-3.192 0.99,-1.785 0.771,-3.762 0.647,-4.575 -0.184,-1.205 -0.565,-2.487 -0.752,-3.183 -1.213,0.13 -3.791,0.44 -5.73,0.735 z"
             inkscape:connector-curvature="0" />
          <path
             id="path4501"
             d="m 334.1,169.884 -3.828,0.091 0.796,1.47 -1.733,0.026 -0.797,-1.459 -5.264,0.146 0.771,1.447 -1.771,0.041 -0.785,-1.457 -3.737,0.111 -0.017,-0.742 3.364,-0.089 -2.003,-3.76 -4.14,0.12 -0.028,-0.693 3.803,-0.1 -0.785,-1.489 1.76,-0.039 0.811,1.502 5.265,-0.151 -0.798,-1.488 1.746,-0.04 0.798,1.488 3.79,-0.1 0.017,0.713 -3.416,0.091 1.95,3.745 4.242,-0.097 z m -5.967,-0.576 -2.002,-3.76 -5.251,0.145 1.989,3.735 z"
             inkscape:connector-curvature="0" />
          <path
             id="path4503"
             d="m 328.963,184.822 c 2.525,1.364 3.281,1.556 4.219,1.814 -0.084,0.392 -0.165,0.758 -0.195,1.153 -0.03,0.396 -0.009,0.797 0.014,1.197 -1.633,-1.242 -2.015,-1.458 -4.156,-2.633 l -9.854,-5.254 -1.609,-0.842 c -1.559,-0.812 -1.923,-0.92 -2.66,-1.003 0.058,-0.395 0.143,-0.814 0.174,-1.21 0.031,-0.396 0.009,-0.797 0.015,-1.222 1.271,1.108 3.129,2.155 4.174,2.741 z"
             inkscape:connector-curvature="0" />
          <path
             id="path4505"
             d="m 326.535,193.254 c 3.352,0.528 4.082,0.656 5.875,0.402 -0.148,0.54 -0.424,1.515 -0.905,4.28 -0.345,1.985 -0.657,4.244 -0.905,6.138 -0.648,-0.14 -1.16,-0.283 -1.763,-0.387 -0.443,-0.077 -0.84,-0.119 -1.319,-0.148 1.117,-0.693 1.434,-1.123 1.964,-4.178 0.178,-1.019 0.256,-1.623 0.386,-2.677 -1.035,-0.233 -2.102,-0.446 -2.963,-0.596 l -2.846,-0.495 c -0.261,1.031 -0.449,1.806 -0.693,3.216 -0.072,0.418 -0.287,1.645 -0.226,2.381 0.035,0.571 0.203,0.843 0.431,1.231 -0.607,-0.213 -1.017,-0.339 -1.8,-0.474 -0.679,-0.119 -1.08,-0.134 -1.646,-0.125 0.535,-0.606 0.715,-0.871 0.974,-1.74 0.375,-1.387 0.585,-2.588 0.923,-4.843 l -4.699,-0.816 c -2.146,-0.347 -2.369,-0.143 -2.882,2.808 -0.055,0.312 -0.163,0.939 -0.199,1.768 -0.132,1.994 0.233,2.676 0.659,3.477 -1.398,-0.78 -1.75,-0.923 -3.075,-1.342 0.181,-0.883 0.602,-2.531 1.137,-5.612 0.454,-2.61 0.653,-3.759 0.751,-5.248 0.486,0.3 0.829,0.493 1.411,0.702 1.391,0.511 3.188,0.851 4.833,1.135 z"
             inkscape:connector-curvature="0" />
          <path
             id="path4507"
             d="m 325.918,210.926 -9.74,-2.724 c 1.246,1.639 1.718,3.012 1.412,4.115 -0.189,0.689 -0.58,1.182 -1.17,1.474 -0.591,0.293 -1.271,0.334 -2.045,0.121 -1.271,-0.351 -2.253,-1.199 -2.945,-2.549 -0.691,-1.349 -0.949,-2.91 -0.773,-4.686 l 0.059,-0.601 15.351,4.216 z m -14.519,-4.024 -0.002,0.441 c -0.021,1.242 0.227,2.301 0.741,3.173 0.514,0.872 1.224,1.433 2.129,1.683 0.546,0.15 1.044,0.143 1.492,-0.023 0.448,-0.167 0.726,-0.447 0.836,-0.846 0.227,-0.82 -0.3,-1.959 -1.576,-3.416 z"
             inkscape:connector-curvature="0" />
          <path
             id="path4509"
             d="m 304.965,253.021 c 2.868,1.812 3.488,2.219 5.234,2.695 -0.35,0.438 -0.988,1.223 -2.525,3.572 -1.104,1.687 -2.284,3.637 -3.262,5.277 -0.54,-0.385 -0.955,-0.72 -1.465,-1.054 -0.377,-0.246 -0.724,-0.442 -1.153,-0.658 1.3,-0.194 1.761,-0.464 3.458,-3.059 0.566,-0.865 0.877,-1.39 1.413,-2.306 -0.858,-0.625 -1.753,-1.242 -2.484,-1.721 l -2.418,-1.581 c -0.646,0.845 -1.126,1.48 -1.909,2.678 -0.232,0.354 -0.914,1.397 -1.15,2.098 -0.193,0.538 -0.147,0.854 -0.092,1.302 -0.475,-0.437 -0.8,-0.714 -1.465,-1.148 -0.577,-0.378 -0.939,-0.551 -1.463,-0.767 0.732,-0.345 1.002,-0.516 1.585,-1.212 0.895,-1.125 1.562,-2.146 2.765,-4.081 l -3.992,-2.611 c -1.833,-1.167 -2.118,-1.069 -3.758,1.437 -0.175,0.267 -0.522,0.799 -0.883,1.545 -0.911,1.778 -0.846,2.55 -0.771,3.453 -0.974,-1.271 -1.241,-1.54 -2.293,-2.449 0.517,-0.74 1.556,-2.087 3.267,-4.703 1.451,-2.219 2.089,-3.194 2.768,-4.522 0.328,0.467 0.566,0.781 1.019,1.203 1.074,1.021 2.59,2.042 3.987,2.957 z"
             inkscape:connector-curvature="0" />
          <path
             id="path4511"
             d="m 259.275,298.996 c 3.24,4.973 3.751,5.367 4.59,5.928 -0.613,0.369 -2.973,1.749 -4.549,2.774 -1.398,0.911 -2.998,2.05 -4.619,3.202 -0.229,-0.547 -0.359,-0.843 -0.634,-1.265 -0.29,-0.443 -0.624,-0.858 -1.017,-1.267 0.478,0.101 0.909,0.229 1.713,-0.041 0.62,-0.214 1.521,-0.675 2.432,-1.269 0.423,-0.275 0.808,-0.558 1.229,-0.832 0.518,-0.369 1.021,-0.762 1.518,-1.117 -0.874,-1.486 -1.105,-1.841 -1.8,-2.907 l -1.375,-2.108 c -1.072,0.636 -1.627,0.996 -2.062,1.25 -0.481,0.281 -1.08,0.673 -1.784,1.193 -1.475,1.089 -1.39,1.411 -1.615,1.938 -0.251,-0.531 -0.431,-0.952 -0.764,-1.464 -0.348,-0.532 -0.732,-0.978 -1.104,-1.399 0.619,-0.023 1.022,-0.034 2.271,-0.689 0.688,-0.354 1.599,-0.947 1.953,-1.178 0.422,-0.274 0.977,-0.636 1.991,-1.361 -2.48,-3.855 -3.421,-5.298 -4.541,-6.435 -0.379,-0.387 -0.583,-0.506 -0.956,-0.738 0.599,-0.295 1.183,-0.611 1.738,-0.974 0.576,-0.376 1.147,-0.812 1.681,-1.254 0.344,1.644 1.334,3.212 3.025,5.904 z"
             inkscape:connector-curvature="0" />
        </g>
        <g
           id="g4551">
          <path
             id="path4515"
             d="m 197.984,324.09 c 0.88,5.871 1.18,6.441 1.71,7.301 -0.712,0.08 -3.431,0.353 -5.291,0.631 -1.651,0.248 -3.579,0.617 -5.532,0.99 0.018,-0.593 0.023,-0.915 -0.051,-1.412 -0.079,-0.525 -0.21,-1.041 -0.396,-1.576 0.392,0.289 0.73,0.588 1.574,0.675 0.652,0.063 1.664,0.019 2.738,-0.142 0.498,-0.075 0.967,-0.172 1.465,-0.246 0.624,-0.121 1.245,-0.268 1.844,-0.384 -0.176,-1.715 -0.238,-2.135 -0.428,-3.392 l -0.372,-2.49 c -1.24,0.132 -1.896,0.23 -2.397,0.277 -0.554,0.057 -1.262,0.163 -2.118,0.346 -1.793,0.375 -1.851,0.705 -2.275,1.091 -0.007,-0.589 0.005,-1.046 -0.086,-1.649 -0.094,-0.629 -0.259,-1.193 -0.42,-1.732 0.571,0.236 0.943,0.396 2.352,0.318 0.772,-0.035 1.847,-0.196 2.266,-0.26 0.498,-0.074 1.153,-0.172 2.377,-0.408 -0.652,-4.539 -0.907,-6.242 -1.454,-7.742 -0.184,-0.507 -0.319,-0.701 -0.562,-1.066 0.667,-0.021 1.33,-0.066 1.985,-0.164 0.682,-0.102 1.381,-0.261 2.051,-0.441 -0.371,1.637 -0.123,3.476 0.296,6.628 z"
             inkscape:connector-curvature="0" />
          <path
             id="path4517"
             d="m 175.557,334.035 -0.171,-3.826 -1.448,0.828 -0.063,-1.732 1.438,-0.827 -0.258,-5.26 -1.426,0.801 -0.077,-1.771 1.435,-0.814 -0.191,-3.734 0.739,-0.033 0.162,3.36 3.717,-2.081 -0.207,-4.135 0.691,-0.043 0.18,3.799 1.466,-0.815 0.078,1.758 -1.48,0.843 0.264,5.259 1.466,-0.829 0.076,1.745 -1.465,0.829 0.18,3.787 -0.71,0.031 -0.164,-3.412 -3.705,2.029 0.203,4.238 z m 0.448,-5.976 3.718,-2.082 -0.26,-5.246 -3.69,2.066 z"
             inkscape:connector-curvature="0" />
          <path
             id="path4519"
             d="m 160.507,329.218 c -1.311,2.554 -1.485,3.313 -1.725,4.256 -0.394,-0.075 -0.761,-0.148 -1.158,-0.171 -0.396,-0.022 -0.796,0.008 -1.196,0.039 1.208,-1.657 1.416,-2.044 2.546,-4.211 l 5.043,-9.961 0.808,-1.628 c 0.778,-1.575 0.878,-1.941 0.946,-2.681 0.396,0.049 0.815,0.125 1.213,0.147 0.396,0.022 0.796,-0.008 1.222,-0.011 -1.081,1.293 -2.09,3.174 -2.653,4.23 z"
             inkscape:connector-curvature="0" />
          <path
             id="path4521"
             d="m 143.201,331.641 c -2.748,-0.44 -4.222,-1.293 -5.202,-1.879 0.91,-1.33 1.052,-1.71 1.353,-2.923 0.278,0.608 0.521,1.103 1.254,1.729 0.995,0.83 2.135,1.254 2.972,1.388 4.658,0.743 7.445,-2.595 8.064,-6.468 0.473,-2.957 -0.104,-5.062 -0.976,-6.328 -0.91,-1.353 -2.608,-2.482 -4.519,-2.788 -0.863,-0.138 -1.727,-0.114 -2.601,-0.013 -0.189,1.016 -0.309,1.588 -0.462,2.556 -0.452,2.826 -0.368,2.974 0.173,3.785 -0.641,-0.183 -1.31,-0.37 -1.99,-0.479 -0.706,-0.113 -1.451,-0.15 -2.196,-0.189 0.571,-0.553 0.723,-0.824 0.908,-1.652 0.178,-0.777 0.309,-1.428 0.521,-2.762 0.251,-1.57 0.222,-2.059 0.142,-3.064 0.613,0.019 1.036,0.059 2.465,0.02 1.402,-0.045 3.359,0.133 4.197,0.268 5.286,0.844 8.412,4.967 7.479,10.803 -0.836,5.23 -4.517,9.124 -11.582,7.996 z"
             inkscape:connector-curvature="0" />
          <path
             id="path4523"
             d="m 130.793,325.844 2.742,-9.732 c -1.648,1.247 -3.026,1.717 -4.135,1.408 -0.691,-0.191 -1.184,-0.584 -1.478,-1.175 -0.293,-0.592 -0.332,-1.274 -0.118,-2.048 0.354,-1.271 1.207,-2.252 2.561,-2.941 1.354,-0.689 2.922,-0.943 4.702,-0.763 l 0.604,0.06 -4.244,15.341 z m 4.049,-14.508 -0.443,-0.002 c -1.247,-0.025 -2.31,0.219 -3.188,0.731 -0.876,0.513 -1.44,1.222 -1.692,2.126 -0.151,0.549 -0.145,1.047 0.022,1.496 0.166,0.447 0.45,0.728 0.85,0.839 0.823,0.229 1.968,-0.295 3.434,-1.569 z"
             inkscape:connector-curvature="0" />
          <path
             id="path4525"
             d="m 83.963,308.803 c -2.371,-1.455 -3.407,-2.807 -4.089,-3.723 1.35,-0.882 1.625,-1.179 2.366,-2.185 0.025,0.668 0.062,1.218 0.498,2.077 0.602,1.146 1.494,1.975 2.216,2.418 4.021,2.468 7.872,0.448 9.924,-2.895 1.566,-2.552 1.839,-4.717 1.518,-6.221 -0.324,-1.598 -1.461,-3.291 -3.11,-4.304 -0.745,-0.458 -1.551,-0.765 -2.398,-1.005 -0.563,0.866 -0.892,1.35 -1.404,2.186 -1.497,2.438 -1.476,2.606 -1.285,3.563 -0.523,-0.415 -1.069,-0.843 -1.656,-1.203 -0.61,-0.375 -1.283,-0.694 -1.957,-1.016 0.738,-0.292 0.981,-0.485 1.471,-1.181 0.46,-0.649 0.83,-1.2 1.537,-2.352 0.832,-1.355 0.99,-1.817 1.3,-2.777 0.562,0.25 0.937,0.45 2.272,0.959 1.312,0.495 3.053,1.408 3.775,1.852 4.563,2.801 5.875,7.805 2.784,12.841 -2.775,4.518 -7.664,6.709 -13.762,2.966 z"
             inkscape:connector-curvature="0" />
          <path
             id="path4527"
             d="m 42.82,271.721 c -1.749,-2.164 -2.275,-3.783 -2.61,-4.874 1.565,-0.38 1.925,-0.569 2.96,-1.269 -0.199,0.639 -0.35,1.168 -0.225,2.124 0.184,1.281 0.748,2.359 1.281,3.019 2.966,3.668 7.271,3.051 10.321,0.586 2.329,-1.883 3.308,-3.833 3.507,-5.357 0.229,-1.615 -0.278,-3.59 -1.495,-5.095 -0.549,-0.681 -1.206,-1.239 -1.925,-1.749 -0.819,0.629 -1.29,0.975 -2.053,1.592 -2.227,1.798 -2.262,1.964 -2.402,2.93 -0.355,-0.565 -0.726,-1.152 -1.159,-1.688 -0.449,-0.557 -0.978,-1.084 -1.507,-1.61 0.795,-0.029 1.089,-0.13 1.781,-0.622 0.65,-0.458 1.184,-0.854 2.235,-1.703 1.235,-1 1.54,-1.382 2.152,-2.184 0.445,0.424 0.732,0.736 1.821,1.662 1.072,0.904 2.408,2.347 2.941,3.006 3.365,4.164 2.932,9.318 -1.665,13.033 -4.119,3.332 -9.46,3.764 -13.958,-1.801 z"
             inkscape:connector-curvature="0" />
          <path
             id="path4529"
             d="m 31.075,254.838 3.253,-2.021 -1.439,-0.873 1.482,-0.902 1.434,0.865 4.457,-2.809 -1.4,-0.857 1.507,-0.934 1.422,0.869 3.165,-1.992 0.385,0.622 -2.853,1.783 3.627,2.216 3.505,-2.203 0.38,0.586 -3.227,2.016 1.431,0.883 -1.496,0.928 -1.461,-0.884 -4.463,2.799 1.445,0.88 -1.485,0.921 -1.441,-0.876 -3.216,2.008 -0.379,-0.61 2.896,-1.811 -3.574,-2.229 -3.598,2.251 z m 5.429,-2.54 3.627,2.216 4.454,-2.785 -3.604,-2.205 z"
             inkscape:connector-curvature="0" />
          <path
             id="path4531"
             d="m 27.924,239.352 c -2.869,0.105 -3.617,0.323 -4.556,0.576 -0.127,-0.381 -0.243,-0.737 -0.417,-1.094 -0.174,-0.357 -0.396,-0.691 -0.619,-1.025 2.036,0.244 2.475,0.235 4.916,0.162 l 11.156,-0.469 1.816,-0.091 c 1.754,-0.091 2.122,-0.183 2.8,-0.484 0.151,0.368 0.29,0.773 0.465,1.13 0.174,0.357 0.396,0.691 0.606,1.061 -1.656,-0.311 -3.79,-0.271 -4.988,-0.246 z"
             inkscape:connector-curvature="0" />
          <path
             id="path4533"
             d="m 23.466,229.299 c -2.715,0.072 -3.415,0.162 -4.392,0.354 -0.182,-0.723 -0.365,-1.446 -0.622,-2.143 -0.249,-0.671 -0.581,-1.34 -0.895,-1.958 1.816,-1.124 2.595,-1.694 4.686,-3.372 l 5.908,-4.729 c 0.815,-0.697 2.146,-1.756 2.963,-2.452 1.47,-1.223 1.666,-1.607 1.917,-2.151 0.148,0.708 0.331,1.433 0.58,2.103 0.248,0.672 0.562,1.289 0.9,1.898 -0.184,0.04 -0.426,0.073 -0.649,0.156 -0.472,0.175 -1.209,0.701 -2.053,1.324 l -2.16,1.646 c 0.297,1.105 0.643,2.193 1.038,3.262 0.423,1.143 0.921,2.259 1.428,3.399 l 2.342,-0.16 c 2.433,-0.222 2.625,-0.237 2.974,-0.366 0.149,-0.055 0.223,-0.082 0.463,-0.199 0.137,0.6 0.274,1.199 0.495,1.795 0.211,0.572 0.506,1.141 0.792,1.685 -1.924,-0.39 -2.562,-0.436 -6.434,-0.36 z m 0.555,-5.065 c -1.311,0.965 -1.843,1.359 -3.294,2.32 -0.32,0.203 -0.616,0.397 -0.911,0.592 l 10.006,-0.369 c -0.28,-0.912 -0.571,-1.851 -0.911,-2.77 -0.331,-0.896 -0.721,-1.797 -1.103,-2.673 z"
             inkscape:connector-curvature="0" />
          <path
             id="path4535"
             d="m 16.496,212.396 9.83,-2.418 c -1.901,-0.814 -2.992,-1.778 -3.27,-2.892 -0.175,-0.695 -0.076,-1.315 0.295,-1.862 0.371,-0.547 0.947,-0.917 1.727,-1.112 1.283,-0.319 2.559,-0.062 3.827,0.772 1.269,0.834 2.263,2.07 2.983,3.705 l 0.245,0.552 -15.453,3.879 z m 14.635,-3.635 -0.217,-0.387 c -0.595,-1.097 -1.332,-1.901 -2.213,-2.411 -0.879,-0.51 -1.776,-0.65 -2.689,-0.422 -0.554,0.138 -0.985,0.391 -1.295,0.758 -0.309,0.366 -0.412,0.75 -0.312,1.152 0.206,0.829 1.229,1.567 3.064,2.211 z"
             inkscape:connector-curvature="0" />
          <path
             id="path4537"
             d="m 12.366,170.335 c -2.549,-0.936 -3.234,-1.112 -4.21,-1.294 0.097,-0.74 0.194,-1.48 0.213,-2.222 0.018,-0.716 -0.045,-1.46 -0.107,-2.149 2.104,-0.375 3.036,-0.616 5.6,-1.402 l 7.238,-2.211 c 1.016,-0.348 2.645,-0.838 3.659,-1.185 1.816,-0.592 2.143,-0.876 2.577,-1.29 -0.124,0.714 -0.222,1.453 -0.238,2.168 -0.018,0.715 0.045,1.406 0.135,2.098 -0.186,-0.031 -0.423,-0.09 -0.66,-0.096 -0.504,-0.012 -1.384,0.205 -2.396,0.473 l -2.616,0.732 c -0.134,1.136 -0.214,2.274 -0.242,3.414 -0.029,1.218 0.021,2.439 0.07,3.686 l 2.237,0.717 c 2.342,0.693 2.526,0.75 2.896,0.759 0.159,0.004 0.237,0.007 0.503,-0.015 -0.094,0.608 -0.188,1.215 -0.202,1.852 -0.016,0.608 0.049,1.247 0.113,1.857 -1.644,-1.072 -2.221,-1.352 -5.846,-2.712 z m 2.388,-4.502 c -1.573,0.413 -2.214,0.583 -3.918,0.939 -0.374,0.071 -0.72,0.142 -1.066,0.214 l 9.436,3.355 c 0.075,-0.953 0.152,-1.932 0.176,-2.912 0.022,-0.953 -0.006,-1.936 -0.035,-2.89 z"
             inkscape:connector-curvature="0" />
          <path
             id="path4539"
             d="m 21.554,117.808 c -2.093,-1.732 -2.68,-2.125 -3.539,-2.623 0.338,-0.664 0.677,-1.33 0.94,-2.024 0.254,-0.668 0.444,-1.389 0.615,-2.062 2.106,0.349 3.067,0.431 5.746,0.543 l 7.562,0.326 c 1.072,0.011 2.771,0.09 3.845,0.102 1.911,0.047 2.312,-0.113 2.858,-0.358 -0.354,0.632 -0.691,1.296 -0.945,1.965 -0.255,0.668 -0.427,1.34 -0.571,2.022 -0.165,-0.09 -0.368,-0.225 -0.592,-0.31 -0.471,-0.179 -1.372,-0.268 -2.417,-0.353 l -2.71,-0.181 c -0.505,1.027 -0.959,2.073 -1.364,3.138 -0.434,1.139 -0.793,2.307 -1.161,3.499 l 1.869,1.42 c 1.978,1.433 2.132,1.549 2.479,1.681 0.149,0.057 0.224,0.085 0.48,0.154 -0.291,0.541 -0.582,1.083 -0.809,1.677 -0.216,0.569 -0.369,1.192 -0.511,1.791 -1.193,-1.56 -1.644,-2.016 -4.608,-4.504 z m 3.75,-3.45 c -1.62,-0.135 -2.281,-0.188 -4.008,-0.42 -0.375,-0.057 -0.725,-0.106 -1.076,-0.154 L 28,120.09 c 0.389,-0.873 0.787,-1.771 1.136,-2.687 0.339,-0.892 0.638,-1.827 0.929,-2.737 z"
             inkscape:connector-curvature="0" />
          <path
             id="path4541"
             d="m 27.881,92.803 3.392,1.783 0.023,-1.681 1.527,0.821 -0.02,1.675 4.677,2.427 0.031,-1.642 1.568,0.827 -0.028,1.663 3.319,1.723 -0.344,0.65 -2.98,-1.559 -0.086,4.264 3.677,1.911 -0.313,0.621 -3.371,-1.765 -0.038,1.681 -1.557,-0.821 0.024,-1.711 -4.674,-2.431 -0.032,1.693 -1.544,-0.815 0.026,-1.688 -3.358,-1.758 0.336,-0.639 3.028,1.583 0.122,-4.223 -3.757,-1.982 z m 4.937,3.4 -0.084,4.265 4.66,2.431 0.084,-4.235 z"
             inkscape:connector-curvature="0" />
          <path
             id="path4543"
             d="m 39.631,82.272 c -1.545,-2.42 -2.113,-2.955 -2.807,-3.636 0.264,-0.301 0.512,-0.582 0.732,-0.914 0.219,-0.331 0.394,-0.691 0.569,-1.053 0.822,1.878 1.052,2.253 2.352,4.321 l 6.061,9.379 0.997,1.519 c 0.969,1.466 1.234,1.737 1.838,2.168 -0.241,0.317 -0.52,0.641 -0.739,0.972 -0.219,0.332 -0.394,0.692 -0.605,1.061 -0.571,-1.585 -1.688,-3.404 -2.315,-4.423 z"
             inkscape:connector-curvature="0" />
          <path
             id="path4545"
             d="m 47.529,77.387 c -3.508,-2.869 -4.943,-4.043 -6.613,-4.555 0.496,-0.482 0.874,-0.859 1.428,-1.536 0.855,-1.047 1.569,-2.004 3.122,-3.985 0.818,-1.043 1.946,-2.379 3.937,-2.635 1.509,-0.17 2.576,0.533 3.191,1.036 0.718,0.588 1.363,1.389 1.535,2.728 0.188,1.695 -0.574,2.92 -1.29,4.045 0.921,-0.958 2.403,-2.519 4.378,-2.547 1.283,0.022 2.256,0.715 2.688,1.068 1.312,1.074 3.663,4.06 0.207,8.284 -1.108,1.354 -1.692,1.901 -2.801,3.256 -0.453,0.554 -0.936,1.186 -1.78,2.344 -0.116,-0.779 -2.094,-2.672 -5.13,-5.155 z m 1.728,-2.113 c 0.858,-0.838 1.496,-1.618 1.781,-1.966 0.352,-0.431 0.914,-1.409 1.079,-2.198 0.309,-1.632 -0.668,-2.532 -1.221,-2.985 -1.969,-1.611 -3.538,-0.531 -4.947,1.191 -0.52,0.636 -0.902,1.146 -1.462,1.954 0.606,0.599 1.55,1.371 2.616,2.244 z m 5.498,4.498 c 0.964,0.789 1.373,1.124 2.441,0.32 0.28,-0.217 0.687,-0.671 0.938,-0.979 1.661,-2.03 1.719,-4.277 -0.045,-5.72 -2.688,-2.198 -4.702,0.056 -5.659,1.226 -0.303,0.369 -0.752,0.96 -1.553,1.982 z"
             inkscape:connector-curvature="0" />
          <path
             id="path4547"
             d="m 56.609,59.195 7.095,7.204 c -0.267,-2.046 0.009,-3.474 0.823,-4.282 0.508,-0.505 1.092,-0.738 1.752,-0.7 0.658,0.04 1.271,0.343 1.835,0.912 0.93,0.937 1.359,2.162 1.29,3.678 -0.071,1.515 -0.624,3 -1.66,4.453 l -0.35,0.493 -11.22,-11.289 z m 10.597,10.704 0.221,-0.384 c 0.64,-1.07 0.954,-2.113 0.943,-3.129 -0.011,-1.015 -0.348,-1.855 -1.008,-2.521 -0.4,-0.404 -0.838,-0.645 -1.31,-0.722 -0.473,-0.077 -0.854,0.029 -1.148,0.321 -0.607,0.601 -0.72,1.855 -0.338,3.757 z"
             inkscape:connector-curvature="0" />
          <path
             id="path4549"
             d="m 100.928,32.764 c -1.894,-4.118 -2.668,-5.803 -3.945,-6.996 0.659,-0.215 1.162,-0.388 1.957,-0.753 1.229,-0.565 2.29,-1.112 4.555,-2.212 1.192,-0.577 2.793,-1.284 4.693,-0.641 1.43,0.509 2.082,1.61 2.413,2.333 0.388,0.842 0.616,1.846 0.183,3.124 -0.574,1.606 -1.797,2.372 -2.935,3.069 1.249,-0.457 3.266,-1.208 5.052,-0.368 1.144,0.583 1.714,1.633 1.946,2.138 0.708,1.541 1.511,5.256 -3.448,7.537 -1.59,0.73 -2.355,0.965 -3.944,1.696 -0.65,0.299 -1.362,0.655 -2.629,1.325 0.238,-0.75 -0.71,-3.319 -2.347,-6.882 z m 2.479,-1.141 c 1.139,-0.377 2.054,-0.798 2.463,-0.986 0.506,-0.232 1.44,-0.866 1.935,-1.502 0.992,-1.331 0.512,-2.568 0.212,-3.218 -1.062,-2.312 -2.945,-2.029 -4.967,-1.099 -0.747,0.343 -1.313,0.633 -2.171,1.114 0.281,0.804 0.791,1.912 1.367,3.164 z m 2.967,6.453 c 0.521,1.131 0.742,1.613 2.054,1.36 0.348,-0.071 0.912,-0.303 1.273,-0.468 2.383,-1.097 3.421,-3.09 2.469,-5.161 -1.449,-3.153 -4.25,-2.012 -5.623,-1.381 -0.433,0.2 -1.096,0.533 -2.266,1.1 z"
             inkscape:connector-curvature="0" />
        </g>
        <circle
           id="circle4553"
           r="134.99899"
           cy="171.00101"
           cx="171"
           style="fill:none;stroke:#006b33;stroke-width:2" />
      </g>
      <rect
         id="rect4557"
         height="342"
         width="342"
         x="0"
         y="0"
         style="fill:none" />
      <path
         style="opacity:0.97000002;fill:none;fill-opacity:1;stroke:#000000;stroke-width:1.51937008;stroke-linejoin:round;stroke-miterlimit:4;stroke-dasharray:none;stroke-dashoffset:56.69291306;stroke-opacity:0.93381473;marker-end:url(#Arrow2Lend)"
         id="path4613"
         sodipodi:type="arc"
         sodipodi:cx="186.86363"
         sodipodi:cy="191.31113"
         sodipodi:rx="76.310379"
         sodipodi:ry="76.310379"
         sodipodi:start="0"
         sodipodi:end="1.5593026"
         sodipodi:open="true"
         d="M 263.17401,191.31113 A 76.310379,76.310379 0 0 1 187.7407,267.61647" />
      <path
         transform="matrix(0,-1,-1,0,0,0)"
         d="m -82.268661,-153.11795 a 76.310379,79.077499 0 0 1 -75.433309,79.072276"
         sodipodi:open="true"
         sodipodi:end="1.5593026"
         sodipodi:start="0"
         sodipodi:ry="79.077499"
         sodipodi:rx="76.310379"
         sodipodi:cy="-153.11795"
         sodipodi:cx="-158.57904"
         sodipodi:type="arc"
         id="path5303"
         style="opacity:0.97000002;fill:none;fill-opacity:1;stroke:#000000;stroke-width:1.54667211;stroke-linejoin:round;stroke-miterlimit:4;stroke-dasharray:none;stroke-dashoffset:56.69291306;stroke-opacity:0.93381473;marker-end:url(#marker5307)" />
      <text
         xml:space="preserve"
         style="font-style:normal;font-variant:normal;font-weight:normal;font-stretch:normal;font-size:40px;line-height:81.99999928%;font-family:Cantarell;-inkscape-font-specification:Cantarell;letter-spacing:0px;word-spacing:0px;fill:#000000;fill-opacity:1;stroke:none;stroke-width:1px;stroke-linecap:butt;stroke-linejoin:miter;stroke-opacity:1"
         x="133.28342"
         y="133.47993"
         id="text5773"><tspan
           sodipodi:role="line"
           x="133.28342"
           y="133.47993"
           id="tspan5775"
           style="font-size:29.33333397px;line-height:0%;text-align:center;text-anchor:middle">lower</tspan></text>
      <text
         id="text5785"
         y="225.15128"
         x="208.28723"
         style="font-style:normal;font-variant:normal;font-weight:normal;font-stretch:normal;font-size:40px;line-height:81.99999928%;font-family:Cantarell;-inkscape-font-specification:Cantarell;letter-spacing:0px;word-spacing:0px;fill:#000000;fill-opacity:1;stroke:none;stroke-width:1px;stroke-linecap:butt;stroke-linejoin:miter;stroke-opacity:1"
         xml:space="preserve"><tspan
           style="font-size:29.33333397px;line-height:0%;text-align:center;text-anchor:middle"
           id="tspan5783"
           y="225.15128"
           x="208.28723"
           sodipodi:role="line">higher</tspan><tspan
           style="font-size:29.33333397px;line-height:0%;text-align:center;text-anchor:middle"
           y="257.95129"
           x="208.28723"
           sodipodi:role="line"
           id="tspan5787" /></text>
    </g>
  </g>
</svg>
